<svg width="12" height="13" viewBox="0 0 12 13" fill="none" xmlns="http://www.w3.org/2000/svg">
<path fill-rule="evenodd" clip-rule="evenodd" d="M11.9323 11.6525V2.58944C11.9323 1.87734 11.3558 1.29472 10.6512 1.29472H10.0106V0H8.72954V1.29472H3.60511V0H2.324V1.29472H1.68345C0.972436 1.29472 0.408749 1.87734 0.408749 2.58944L0.402344 11.6525C0.402344 12.3675 0.975915 12.9472 1.68345 12.9472H10.6512C11.3558 12.9472 11.9323 12.3646 11.9323 11.6525ZM4.24526 5.82629H2.96415V7.12101H4.24526V5.82629ZM1.68335 3.8842H10.6511V2.58948H1.68335V3.8842ZM10.6511 5.17896V11.6526H1.68335V5.17896H10.6511ZM8.08932 7.12101H9.37043V5.82629H8.08932V7.12101ZM6.80784 7.12101H5.52674V5.82629H6.80784V7.12101Z" fill="#E68523"/>
</svg>
