<svg width="26" height="25" viewBox="0 0 26 25" fill="none" xmlns="http://www.w3.org/2000/svg">
<path fill-rule="evenodd" clip-rule="evenodd" d="M13.0018 16.609L21.0934 24.4058C21.9052 25.194 22.4333 25.2021 23.2599 24.4058L24.8834 22.8411C25.6787 22.075 25.7326 21.5721 24.8834 20.7537L16.3168 12.5003L24.8841 4.24691C25.6865 3.4712 25.7021 2.94769 24.8841 2.15874L23.2607 0.594824C22.4185 -0.216913 21.8981 -0.179415 21.0942 0.594824L13.0018 8.39163L4.91023 0.59556C4.10631 -0.178679 3.58598 -0.216178 2.74377 0.59556L1.1203 2.15948C0.301528 2.94842 0.316372 3.47194 1.1203 4.24764L9.68691 12.5003L1.1203 20.7537C0.271058 21.5721 0.316372 22.075 1.1203 22.8411L2.74299 24.4058C3.56254 25.2021 4.09068 25.194 4.90945 24.4058L13.0018 16.609Z" fill="black"/>
</svg>
