<svg width="28" height="21" viewBox="0 0 28 21" fill="none" xmlns="http://www.w3.org/2000/svg">
<path fill-rule="evenodd" clip-rule="evenodd" d="M1.10274 11.0888C1.97957 12.4437 3.01614 13.6388 4.18406 14.7002C5.3792 15.79 6.68083 16.6397 8.08897 17.2775C7.66416 18.0206 7.45117 18.4454 7.45117 18.5791C7.45117 18.7649 7.53045 18.8974 7.69019 19.0039C8.88533 19.6938 9.54916 20.0393 9.68169 20.0393C9.84144 20.0393 10.0012 19.96 10.0805 19.8003L10.8248 18.4726C11.8602 16.5864 13.4269 13.7974 15.4988 10.0522C17.5708 6.30822 19.1114 3.51917 20.1468 1.68624C20.1729 1.6602 20.1729 1.60695 20.1729 1.55371C20.1729 1.36793 20.0936 1.2354 19.9338 1.15493C19.9078 1.1289 19.8013 1.07565 19.6427 0.969154C19.483 0.889873 19.3233 0.783375 19.1907 0.704094C19.031 0.623629 18.8724 0.518315 18.6855 0.43785C18.5269 0.331353 18.3671 0.278104 18.2346 0.198823C18.1021 0.145574 18.0216 0.119541 17.9684 0.119541C17.7826 0.119541 17.6501 0.198823 17.5436 0.358569L16.7472 1.76552C15.8443 1.60695 14.9675 1.52649 14.0907 1.52649C11.4354 1.52649 8.99183 2.19151 6.73408 3.54521C4.50237 4.87406 2.61737 6.70581 1.10274 9.04402C0.91696 9.33512 0.811646 9.68064 0.811646 10.0522C0.811646 10.4249 0.91696 10.7705 1.10274 11.0888ZM8.35403 4.82081C7.74344 5.8562 7.45117 6.97206 7.45117 8.16719C7.45117 9.2298 7.6902 10.2119 8.16825 11.1681C8.64631 12.1242 9.33736 12.8945 10.187 13.5323L9.01786 15.6043C6.46903 14.4624 4.34381 12.6022 2.69665 10.0522C4.21128 7.71517 6.09628 5.98873 8.35403 4.82081ZM10.904 4.97937C11.7809 4.10373 12.8423 3.6517 14.0907 3.6517C14.2776 3.6517 14.4362 3.73099 14.596 3.8647C14.7285 3.99723 14.7817 4.15698 14.7817 4.36879C14.7817 4.55457 14.7285 4.74034 14.596 4.87406C14.4362 5.00659 14.2776 5.08587 14.0907 5.08587C13.2411 5.08587 12.498 5.37815 11.9134 5.98873C11.3028 6.57328 11.0105 7.31758 11.0105 8.16719C11.0105 8.35297 10.9301 8.51272 10.7975 8.67128C10.665 8.80499 10.4792 8.85706 10.2935 8.85706C10.0805 8.85706 9.9219 8.80499 9.78819 8.67128C9.65566 8.51272 9.57638 8.35297 9.57638 8.16719C9.57638 6.91881 10.0272 5.8562 10.904 4.97937ZM20.3066 17.197C22.2721 16.2681 23.9713 14.9392 25.4587 13.24C26.1497 12.4437 26.681 11.7266 27.0786 11.0888C27.2644 10.7432 27.3709 10.3977 27.3709 10.0522C27.3709 9.70786 27.2644 9.36233 27.0786 9.04402C26.5213 8.08673 25.8042 7.18387 24.9274 6.30822C24.0778 5.43139 23.1749 4.66106 22.2188 4.05048L21.2887 5.69645C22.9359 6.83953 24.3428 8.29972 25.4859 10.0522C24.2908 11.9124 22.7761 13.4258 20.9965 14.6209C19.2168 15.79 17.2785 16.4539 15.1805 16.6397L14.0907 18.6051C16.2952 18.6051 18.3672 18.1271 20.3066 17.197ZM19.5623 11.9124C20.3326 10.7965 20.7314 9.52208 20.7314 8.16719C20.7314 7.76842 20.7042 7.37083 20.6249 6.91881L16.4549 14.3559C17.7566 13.8506 18.792 13.0542 19.5623 11.9124Z" fill="#BEBEBE"/>
</svg>
