<svg width="25" height="23" viewBox="0 0 25 23" fill="none" xmlns="http://www.w3.org/2000/svg">
<path d="M24.4124 9.1375L13.0582 0.82419C12.8392 0.663909 12.5418 0.663909 12.3229 0.82419L0.968631 9.1375C0.691298 9.34059 0.63104 9.73001 0.834128 10.0073C1.03722 10.2847 1.42669 10.3448 1.70398 10.1419L12.6905 2.09769L23.677 10.1418C23.7878 10.223 23.9166 10.262 24.0442 10.262C24.2358 10.262 24.4249 10.1739 24.5468 10.0073C24.75 9.73001 24.6897 9.34059 24.4124 9.1375Z" fill="#0077B5" stroke="#0077B5" stroke-width="0.666667"/>
<path d="M21.4033 10.2827C21.0597 10.2827 20.781 10.5614 20.781 10.9051V20.8115H15.8022V15.4039C15.8022 13.6879 14.406 12.2919 12.6901 12.2919C10.9742 12.2919 9.57807 13.688 9.57807 15.4039V20.8115H4.59922V10.9051C4.59922 10.5614 4.32053 10.2828 3.97685 10.2828C3.63318 10.2828 3.35449 10.5614 3.35449 10.9051V21.4339C3.35449 21.7776 3.63318 22.0563 3.97685 22.0563H10.2004C10.5277 22.0563 10.7956 21.8034 10.8204 21.4824C10.8219 21.4678 10.8228 21.4519 10.8228 21.4339V15.404C10.8228 14.3743 11.6605 13.5367 12.6901 13.5367C13.7198 13.5367 14.5574 14.3744 14.5574 15.404V21.4339C14.5574 21.4518 14.5584 21.4675 14.5599 21.4818C14.5844 21.8031 14.8523 22.0563 15.1798 22.0563H21.4034C21.7471 22.0563 22.0257 21.7776 22.0257 21.4339V10.9051C22.0257 10.5614 21.7471 10.2827 21.4033 10.2827Z" fill="#0077B5" stroke="#0077B5" stroke-width="0.666667"/>
</svg>
