<svg width="14" height="14" viewBox="0 0 14 14" fill="none" xmlns="http://www.w3.org/2000/svg">
<path d="M7.00001 3.7953C5.22658 3.7953 3.79533 5.22655 3.79533 6.99999C3.79533 8.77343 5.22658 10.2047 7.00001 10.2047C8.77345 10.2047 10.2047 8.77343 10.2047 6.99999C10.2047 5.22655 8.77345 3.7953 7.00001 3.7953ZM7.00001 9.0828C5.85314 9.0828 4.9172 8.14686 4.9172 6.99999C4.9172 5.85311 5.85314 4.91718 7.00001 4.91718C8.14689 4.91718 9.08283 5.85311 9.08283 6.99999C9.08283 8.14686 8.14689 9.0828 7.00001 9.0828ZM10.336 2.91718C9.92189 2.91718 9.58751 3.25155 9.58751 3.66561C9.58751 4.07968 9.92189 4.41405 10.336 4.41405C10.75 4.41405 11.0844 4.08124 11.0844 3.66561C11.0845 3.56729 11.0652 3.46991 11.0277 3.37905C10.9901 3.28819 10.935 3.20564 10.8655 3.13611C10.7959 3.06659 10.7134 3.01147 10.6225 2.9739C10.5317 2.93633 10.4343 2.91705 10.336 2.91718ZM13.2469 6.99999C13.2469 6.13749 13.2547 5.2828 13.2063 4.42186C13.1578 3.42186 12.9297 2.53436 12.1985 1.80311C11.4656 1.0703 10.5797 0.843739 9.5797 0.795301C8.7172 0.746864 7.86251 0.754676 7.00157 0.754676C6.13907 0.754676 5.28439 0.746864 4.42345 0.795301C3.42345 0.843739 2.53595 1.07186 1.8047 1.80311C1.07189 2.53593 0.845326 3.42186 0.796888 4.42186C0.748451 5.28436 0.756263 6.13905 0.756263 6.99999C0.756263 7.86093 0.748451 8.71718 0.796888 9.57811C0.845326 10.5781 1.07345 11.4656 1.8047 12.1969C2.53751 12.9297 3.42345 13.1562 4.42345 13.2047C5.28595 13.2531 6.14064 13.2453 7.00157 13.2453C7.86408 13.2453 8.71876 13.2531 9.5797 13.2047C10.5797 13.1562 11.4672 12.9281 12.1985 12.1969C12.9313 11.4641 13.1578 10.5781 13.2063 9.57811C13.2563 8.71718 13.2469 7.86249 13.2469 6.99999ZM11.8719 10.6844C11.7578 10.9687 11.6203 11.1812 11.4 11.4C11.1797 11.6203 10.9688 11.7578 10.6844 11.8719C9.86251 12.1984 7.91095 12.125 7.00001 12.125C6.08908 12.125 4.13595 12.1984 3.31408 11.8734C3.0297 11.7594 2.8172 11.6219 2.59845 11.4016C2.37814 11.1812 2.24064 10.9703 2.12658 10.6859C1.80158 9.86249 1.87501 7.91093 1.87501 6.99999C1.87501 6.08905 1.80158 4.13593 2.12658 3.31405C2.24064 3.02968 2.37814 2.81718 2.59845 2.59843C2.81876 2.37968 3.0297 2.24061 3.31408 2.12655C4.13595 1.80155 6.08908 1.87499 7.00001 1.87499C7.91095 1.87499 9.86408 1.80155 10.686 2.12655C10.9703 2.24061 11.1828 2.37811 11.4016 2.59843C11.6219 2.81874 11.7594 3.02968 11.8735 3.31405C12.1985 4.13593 12.125 6.08905 12.125 6.99999C12.125 7.91093 12.1985 9.86249 11.8719 10.6844Z" fill="#0077B5"/>
</svg>
