<svg width="13" height="13" viewBox="0 0 13 13" fill="none" xmlns="http://www.w3.org/2000/svg">
<path d="M10.0672 6.68313C10.0092 6.62504 9.94037 6.57895 9.86454 6.54751C9.78872 6.51606 9.70744 6.49988 9.62536 6.49988C9.54328 6.49988 9.462 6.51606 9.38618 6.54751C9.31036 6.57895 9.24148 6.62504 9.18349 6.68313L8.18724 7.67938C7.72536 7.54188 6.86349 7.22938 6.31724 6.68313C5.77099 6.13688 5.45849 5.275 5.32099 4.81313L6.31724 3.81688C6.37533 3.75889 6.42141 3.69001 6.45286 3.61419C6.4843 3.53837 6.50049 3.45709 6.50049 3.375C6.50049 3.29292 6.4843 3.21164 6.45286 3.13582C6.42141 3.06 6.37533 2.99112 6.31724 2.93313L3.81724 0.433129C3.75924 0.375038 3.69037 0.328951 3.61454 0.297507C3.53872 0.266063 3.45744 0.249878 3.37536 0.249878C3.29328 0.249878 3.212 0.266063 3.13618 0.297507C3.06036 0.328951 2.99148 0.375038 2.93349 0.433129L1.23849 2.12813C1.00099 2.36563 0.867236 2.69188 0.872236 3.025C0.886611 3.915 1.12224 7.00625 3.55849 9.4425C5.99474 11.8788 9.08599 12.1138 9.97661 12.1288H9.99411C10.3241 12.1288 10.636 11.9988 10.8722 11.7625L12.5672 10.0675C12.6253 10.0095 12.6714 9.94063 12.7029 9.86481C12.7343 9.78899 12.7505 9.70771 12.7505 9.62563C12.7505 9.54354 12.7343 9.46227 12.7029 9.38645C12.6714 9.31062 12.6253 9.24175 12.5672 9.18375L10.0672 6.68313ZM9.98786 10.8781C9.20786 10.865 6.53911 10.6556 4.44224 8.55813C2.33849 6.45438 2.13474 3.77625 2.12224 3.01188L3.37536 1.75875L4.99161 3.375L4.18349 4.18313C4.11002 4.25654 4.05601 4.34709 4.02633 4.44661C3.99665 4.54613 3.99224 4.65147 4.01349 4.75313C4.02849 4.825 4.39536 6.52938 5.43286 7.56688C6.47036 8.60438 8.17474 8.97125 8.24661 8.98625C8.3482 9.0081 8.45366 9.00404 8.55327 8.97444C8.65288 8.94484 8.74344 8.89066 8.81661 8.81688L9.62536 8.00875L11.2416 9.625L9.98786 10.8781Z" fill="#E68523"/>
</svg>
