<svg width="113" height="98" viewBox="0 0 113 98" fill="none" xmlns="http://www.w3.org/2000/svg">
<path fill-rule="evenodd" clip-rule="evenodd" d="M0.319336 0.606636L56.2818 97.6886L112.133 0.606636H0.865766H0.319336Z" fill="#0A8EBA"/>
<path fill-rule="evenodd" clip-rule="evenodd" d="M0.0761719 1.09677L34.5293 24.9503L52.4601 55.4376L56.4337 97.353L59.8203 55.4376L78.0112 24.9503L111.934 1.09677L74.929 18.3934H37.8623L0.0761719 1.09677Z" fill="white"/>
<path fill-rule="evenodd" clip-rule="evenodd" d="M0.0761719 1.09677L34.5293 24.9503L52.4601 55.4376L56.4337 97.353L59.8203 55.4376L78.0112 24.9503L111.934 1.09677L74.929 18.3934H37.8623L0.0761719 1.09677Z" fill="#FFBB75" fill-opacity="0.693671"/>
<path fill-rule="evenodd" clip-rule="evenodd" d="M38.4932 22.8341L56.5947 53.2998V35.1447L38.4932 22.8341Z" fill="#34B2DC"/>
<path fill-rule="evenodd" clip-rule="evenodd" d="M56.4564 35.3248L74.3102 23.0214H38.7227L56.4564 35.3248Z" fill="#097396"/>
<path fill-rule="evenodd" clip-rule="evenodd" d="M56.6494 53.4629V35.0155L74.2359 22.8835L56.6494 53.4629Z" fill="#0C96C4"/>
</svg>
