<svg width="17" height="13" viewBox="0 0 17 13" fill="none" xmlns="http://www.w3.org/2000/svg">
<path fill-rule="evenodd" clip-rule="evenodd" d="M15.538 0H0.575483C0.257169 0 0 0.261523 0 0.585225V12.2897C0 12.6134 0.257169 12.875 0.575483 12.875H15.538C15.8564 12.875 16.1135 12.6134 16.1135 12.2897V0.585225C16.1135 0.261523 15.8564 0 15.538 0ZM14.8172 2.02635V11.5582H1.29333V2.02635L0.796972 1.63315L0.797105 1.63298L1.29137 2.02452L7.43465 6.88189C7.79809 7.16902 8.3067 7.16902 8.67014 6.88189L14.817 2.02635L15.3134 1.63315L14.6074 0.71056L14.6086 0.709595L15.3153 1.63315L14.8172 2.02635ZM13.8364 1.31859L13.8387 1.31676L14.6066 0.709593L14.6074 0.71056L13.8389 1.31859H13.8364ZM13.8364 1.31859L8.05509 5.88884L2.2738 1.31859H13.8364ZM2.2738 1.31859H2.27345L1.50374 0.709595L0.797105 1.63298L0.795012 1.63132L1.50178 0.707764L2.27149 1.31676L2.2738 1.31859Z" fill="#E68523"/>
</svg>
