<svg width="22" height="23" viewBox="0 0 22 23" fill="none" xmlns="http://www.w3.org/2000/svg">
<path fill-rule="evenodd" clip-rule="evenodd" d="M14.4955 12.1851C16.0405 12.7182 17.4565 13.5989 18.6462 14.7886C20.7092 16.8516 21.8453 19.5945 21.8453 22.5121H20.1387C20.1387 17.4304 16.0044 13.2961 10.9227 13.2961C5.84094 13.2961 1.70667 17.4304 1.70667 22.5121H0C0 19.5945 1.13617 16.8516 3.19919 14.7886C4.38886 13.5989 5.80488 12.7182 7.34984 12.1851C5.6951 11.0455 4.608 9.13813 4.608 6.98141C4.608 3.49952 7.44077 0.666748 10.9227 0.666748C14.4046 0.666748 17.2373 3.49952 17.2373 6.98141C17.2373 9.13813 16.1502 11.0455 14.4955 12.1851ZM6.31467 6.98141C6.31467 9.5223 8.38182 11.5894 10.9227 11.5894C13.4635 11.5894 15.5307 9.5223 15.5307 6.98141C15.5307 4.44053 13.4635 2.37341 10.9227 2.37341C8.38182 2.37341 6.31467 4.44053 6.31467 6.98141Z" fill="#222222"/>
</svg>
