<svg width="27" height="19" viewBox="0 0 27 19" fill="none" xmlns="http://www.w3.org/2000/svg">
<path d="M1.92857 0H11.5714C12.0829 0 12.5735 0.200178 12.9351 0.556497C13.2968 0.912817 13.5 1.39609 13.5 1.9C13.5 2.40391 13.2968 2.88718 12.9351 3.2435C12.5735 3.59982 12.0829 3.8 11.5714 3.8H1.92857C1.41708 3.8 0.926543 3.59982 0.564866 3.2435C0.203189 2.88718 0 2.40391 0 1.9C0 1.39609 0.203189 0.912817 0.564866 0.556497C0.926543 0.200178 1.41708 0 1.92857 0ZM15.4286 15.2H25.0714C25.5829 15.2 26.0735 15.4002 26.4351 15.7565C26.7968 16.1128 27 16.5961 27 17.1C27 17.6039 26.7968 18.0872 26.4351 18.4435C26.0735 18.7998 25.5829 19 25.0714 19H15.4286C14.9171 19 14.4265 18.7998 14.0649 18.4435C13.7032 18.0872 13.5 17.6039 13.5 17.1C13.5 16.5961 13.7032 16.1128 14.0649 15.7565C14.4265 15.4002 14.9171 15.2 15.4286 15.2ZM1.92857 7.6H25.0714C25.5829 7.6 26.0735 7.80018 26.4351 8.1565C26.7968 8.51282 27 8.99609 27 9.5C27 10.0039 26.7968 10.4872 26.4351 10.8435C26.0735 11.1998 25.5829 11.4 25.0714 11.4H1.92857C1.41708 11.4 0.926543 11.1998 0.564866 10.8435C0.203189 10.4872 0 10.0039 0 9.5C0 8.99609 0.203189 8.51282 0.564866 8.1565C0.926543 7.80018 1.41708 7.6 1.92857 7.6Z" fill="#00A0DC"/>
</svg>
