<svg width="25" height="25" viewBox="0 0 25 25" fill="none" xmlns="http://www.w3.org/2000/svg">
<path d="M17.7504 9.21726C18.147 9.21661 18.5345 9.09842 18.8639 8.87761C19.1934 8.65681 19.4499 8.3433 19.6013 7.97671C19.7526 7.61013 19.7918 7.20691 19.7141 6.81802C19.6363 6.42912 19.445 6.07201 19.1643 5.79181C18.8837 5.5116 18.5263 5.32088 18.1372 5.24375C17.7482 5.16662 17.3451 5.20653 16.9787 5.35845C16.6124 5.51037 16.2993 5.76747 16.079 6.09727C15.8588 6.42707 15.7412 6.81476 15.7412 7.21135C15.7422 7.7436 15.9544 8.25371 16.331 8.62976C16.7077 9.00581 17.2181 9.21709 17.7504 9.21726ZM17.7504 5.79138C18.0311 5.79203 18.3053 5.87586 18.5384 6.03228C18.7715 6.1887 18.953 6.41069 19.0599 6.67022C19.1669 6.92974 19.1946 7.21514 19.1394 7.49037C19.0842 7.7656 18.9487 8.01831 18.75 8.21657C18.5513 8.41483 18.2983 8.54975 18.0229 8.60427C17.7476 8.6588 17.4622 8.63049 17.203 8.52292C16.9437 8.41535 16.7221 8.23334 16.5662 7.9999C16.4103 7.76646 16.3271 7.49205 16.3271 7.21135C16.328 6.83445 16.4783 6.47328 16.7452 6.20708C17.012 5.94088 17.3735 5.79138 17.7504 5.79138Z" fill="black"/>
<path d="M22.5997 1.70898H2.40029C1.89379 1.70915 1.40803 1.91022 1.04959 2.26808C0.69114 2.62594 0.489277 3.11137 0.488281 3.61787V16.7502C0.489277 17.2567 0.69114 17.7422 1.04959 18.1C1.40803 18.4579 1.89379 18.659 2.40029 18.6591H9.10981V22.7051H7.52388C7.44618 22.7051 7.37166 22.7359 7.31672 22.7909C7.26177 22.8458 7.23091 22.9203 7.23091 22.998C7.23091 23.0757 7.26177 23.1503 7.31672 23.2052C7.37166 23.2601 7.44618 23.291 7.52388 23.291H17.7675C17.8452 23.291 17.9197 23.2601 17.9746 23.2052C18.0296 23.1503 18.0604 23.0757 18.0604 22.998C18.0604 22.9203 18.0296 22.8458 17.9746 22.7909C17.9197 22.7359 17.8452 22.7051 17.7675 22.7051H15.8902V18.6591H22.5997C23.1062 18.659 23.592 18.4579 23.9504 18.1C24.3089 17.7422 24.5107 17.2567 24.5117 16.7502V3.61787C24.5107 3.11137 24.3089 2.62594 23.9504 2.26808C23.592 1.91022 23.1062 1.70915 22.5997 1.70898ZM2.40029 2.29492H22.5997C22.9509 2.29491 23.2877 2.43419 23.5363 2.6822C23.7849 2.93021 23.925 3.26671 23.9258 3.61787V14.9819H21.8906L20.9385 11.3852C20.8233 10.9056 20.5504 10.4786 20.1634 10.1728C19.7764 9.86702 19.2979 9.70016 18.8047 9.69902H14.6924L11.7639 8.58286C11.7612 8.58184 11.7584 8.58081 11.7557 8.57988C11.6114 8.53017 11.4578 8.51348 11.3062 8.53103C11.1546 8.54858 11.0089 8.59993 10.8798 8.6813C10.8298 8.7124 10.7825 8.74758 10.7382 8.78647L8.93838 6.81958C8.8857 6.76315 8.81289 6.72979 8.73575 6.72675C8.65862 6.72371 8.58341 6.75124 8.52645 6.80335C8.4695 6.85545 8.43542 6.92793 8.43161 7.00503C8.4278 7.08213 8.45457 7.15762 8.5061 7.21509L10.4199 9.30664C10.4097 9.34706 10.4019 9.38807 10.3966 9.42944C10.3966 9.43135 10.3961 9.43325 10.3959 9.43511C10.3665 9.6776 10.4246 9.92263 10.5598 10.1261C10.6949 10.3295 10.8983 10.4781 11.1333 10.5449L13.9027 11.5421C14.2633 11.6722 14.6402 11.7518 15.0226 11.7785L15.0231 14.9821H1.07422V3.61787C1.07503 3.26671 1.21511 2.93021 1.46371 2.6822C1.71231 2.43419 2.04913 2.29491 2.40029 2.29492ZM20.5168 14.9819L20.0875 13.2741C20.0607 13.1673 19.9957 13.0741 19.9049 13.0118C19.8141 12.9496 19.7036 12.9227 19.5944 12.9363C19.4851 12.9498 19.3845 13.0028 19.3116 13.0853C19.2387 13.1678 19.1985 13.2741 19.1985 13.3842V14.9819H15.6088L15.6083 11.4956C15.6083 11.4179 15.5774 11.3433 15.5224 11.2884C15.4675 11.2335 15.393 11.2026 15.3153 11.2026C14.9013 11.2028 14.4904 11.1311 14.101 10.9906L11.3204 9.98936C11.3122 9.98643 11.3039 9.98385 11.2955 9.98164C11.193 9.95354 11.1043 9.88907 11.0458 9.80028C10.9874 9.71149 10.9634 9.60447 10.9781 9.49922C10.9845 9.45136 10.9988 9.40491 11.0206 9.36182L11.0217 9.35942C11.0599 9.28503 11.1178 9.22255 11.1891 9.17876C11.2436 9.14398 11.3051 9.12173 11.3692 9.11364C11.4334 9.10554 11.4985 9.11179 11.5599 9.13193L14.5341 10.2655C14.5674 10.2782 14.6028 10.2847 14.6384 10.2847H18.8048C19.1673 10.2861 19.5187 10.4094 19.8026 10.6347C20.0865 10.86 20.2864 11.1743 20.37 11.527C20.3704 11.5287 20.3709 11.5305 20.3713 11.5323L21.2844 14.9816L20.5168 14.9819ZM19.9126 14.9819H19.7844V14.4718L19.9126 14.9819ZM15.3042 22.7051H9.69575V18.6591H15.3042V22.7051ZM22.5997 18.0732H2.40029C2.04913 18.0732 1.71231 17.9339 1.46371 17.6859C1.21511 17.4379 1.07503 17.1014 1.07422 16.7502V15.5678H23.9258V16.7502C23.925 17.1014 23.7849 17.4379 23.5363 17.6859C23.2877 17.9339 22.9509 18.0732 22.5997 18.0732Z" fill="black"/>
<path d="M9.0127 5.10303H13.1084C13.1861 5.10303 13.2606 5.07216 13.3156 5.01722C13.3705 4.96228 13.4014 4.88776 13.4014 4.81006C13.4014 4.73236 13.3705 4.65784 13.3156 4.6029C13.2606 4.54796 13.1861 4.51709 13.1084 4.51709H9.0127C8.935 4.51709 8.86048 4.54796 8.80554 4.6029C8.75059 4.65784 8.71973 4.73236 8.71973 4.81006C8.71973 4.88776 8.75059 4.96228 8.80554 5.01722C8.86048 5.07216 8.935 5.10303 9.0127 5.10303Z" fill="black"/>
<path d="M7.96387 5.10303H7.97935C8.05705 5.10303 8.13156 5.07216 8.1865 5.01722C8.24145 4.96228 8.27231 4.88776 8.27231 4.81006C8.27231 4.73236 8.24145 4.65784 8.1865 4.6029C8.13156 4.54796 8.05705 4.51709 7.97935 4.51709H7.96387C7.88617 4.51709 7.81165 4.54796 7.75671 4.6029C7.70176 4.65784 7.6709 4.73236 7.6709 4.81006C7.6709 4.88776 7.70176 4.96228 7.75671 5.01722C7.81165 5.07216 7.88617 5.10303 7.96387 5.10303Z" fill="black"/>
<path d="M6.21582 5.10303H6.89941C6.97712 5.10303 7.05163 5.07216 7.10658 5.01722C7.16152 4.96228 7.19238 4.88776 7.19238 4.81006C7.19238 4.73236 7.16152 4.65784 7.10658 4.6029C7.05163 4.54796 6.97712 4.51709 6.89941 4.51709H6.21582C6.13812 4.51709 6.0636 4.54796 6.00866 4.6029C5.95372 4.65784 5.92285 4.73236 5.92285 4.81006C5.92285 4.88776 5.95372 4.96228 6.00866 5.01722C6.0636 5.07216 6.13812 5.10303 6.21582 5.10303Z" fill="black"/>
<path d="M3.14746 5.10303H5.05005C5.12775 5.10303 5.20227 5.07216 5.25721 5.01722C5.31215 4.96228 5.34302 4.88776 5.34302 4.81006C5.34302 4.73236 5.31215 4.65784 5.25721 4.6029C5.20227 4.54796 5.12775 4.51709 5.05005 4.51709H3.14746C3.10899 4.51709 3.07089 4.52467 3.03535 4.53939C2.9998 4.55411 2.96751 4.57569 2.9403 4.6029C2.9131 4.6301 2.89152 4.6624 2.87679 4.69794C2.86207 4.73349 2.85449 4.77159 2.85449 4.81006C2.85449 4.84853 2.86207 4.88663 2.87679 4.92217C2.89152 4.95772 2.9131 4.99001 2.9403 5.01722C2.96751 5.04442 2.9998 5.066 3.03535 5.08073C3.07089 5.09545 3.10899 5.10303 3.14746 5.10303Z" fill="black"/>
<path d="M13.1078 7.1499H13.1045C13.0265 7.15034 12.9519 7.18169 12.8969 7.23707C12.842 7.29246 12.8113 7.36736 12.8115 7.44536C12.8117 7.52335 12.8429 7.59808 12.8981 7.65315C12.9533 7.70823 13.0282 7.73915 13.1061 7.73915C13.1841 7.73915 13.259 7.70823 13.3142 7.65315C13.3694 7.59808 13.4006 7.52335 13.4008 7.44536C13.401 7.36736 13.3703 7.29246 13.3154 7.23707C13.2604 7.18169 13.1858 7.15034 13.1078 7.1499Z" fill="black"/>
<path d="M11.9908 7.1499H10.54C10.4623 7.1499 10.3878 7.18077 10.3329 7.23571C10.2779 7.29065 10.2471 7.36517 10.2471 7.44287C10.2471 7.52057 10.2779 7.59509 10.3329 7.65003C10.3878 7.70497 10.4623 7.73584 10.54 7.73584H11.9908C12.0685 7.73584 12.143 7.70497 12.198 7.65003C12.2529 7.59509 12.2838 7.52057 12.2838 7.44287C12.2838 7.36517 12.2529 7.29065 12.198 7.23571C12.143 7.18077 12.0685 7.1499 11.9908 7.1499Z" fill="black"/>
<path d="M3.14746 7.73584H7.51392C7.59162 7.73584 7.66613 7.70497 7.72107 7.65003C7.77602 7.59509 7.80688 7.52057 7.80688 7.44287C7.80688 7.36517 7.77602 7.29065 7.72107 7.23571C7.66613 7.18077 7.59162 7.1499 7.51392 7.1499H3.14746C3.06976 7.1499 2.99524 7.18077 2.9403 7.23571C2.88536 7.29065 2.85449 7.36517 2.85449 7.44287C2.85449 7.52057 2.88536 7.59509 2.9403 7.65003C2.99524 7.70497 3.06976 7.73584 3.14746 7.73584Z" fill="black"/>
<path d="M9.10254 10.5327H9.87217C9.94987 10.5327 10.0244 10.5018 10.0793 10.4469C10.1343 10.392 10.1651 10.3174 10.1651 10.2397C10.1651 10.162 10.1343 10.0875 10.0793 10.0326C10.0244 9.97764 9.94987 9.94678 9.87217 9.94678H9.10254C9.02484 9.94678 8.95032 9.97764 8.89538 10.0326C8.84044 10.0875 8.80957 10.162 8.80957 10.2397C8.80957 10.3174 8.84044 10.392 8.89538 10.4469C8.95032 10.5018 9.02484 10.5327 9.10254 10.5327Z" fill="black"/>
<path d="M7.97437 10.2397C7.97437 10.162 7.9435 10.0875 7.88856 10.0326C7.83361 9.97764 7.7591 9.94678 7.6814 9.94678H4.73438C4.65667 9.94678 4.58216 9.97764 4.52721 10.0326C4.47227 10.0875 4.44141 10.162 4.44141 10.2397C4.44141 10.3174 4.47227 10.392 4.52721 10.4469C4.58216 10.5018 4.65667 10.5327 4.73438 10.5327H7.6814C7.7591 10.5327 7.83361 10.5018 7.88856 10.4469C7.9435 10.392 7.97437 10.3174 7.97437 10.2397Z" fill="black"/>
<path d="M3.14746 10.5327H3.62031C3.69801 10.5327 3.77253 10.5018 3.82747 10.4469C3.88241 10.392 3.91328 10.3174 3.91328 10.2397C3.91328 10.162 3.88241 10.0875 3.82747 10.0326C3.77253 9.97764 3.69801 9.94678 3.62031 9.94678H3.14746C3.06976 9.94678 2.99524 9.97764 2.9403 10.0326C2.88536 10.0875 2.85449 10.162 2.85449 10.2397C2.85449 10.3174 2.88536 10.392 2.9403 10.4469C2.99524 10.5018 3.06976 10.5327 3.14746 10.5327Z" fill="black"/>
<path d="M12.3721 13.1177H13.1081C13.1858 13.1177 13.2603 13.0868 13.3153 13.0319C13.3702 12.9769 13.4011 12.9024 13.4011 12.8247C13.4011 12.747 13.3702 12.6725 13.3153 12.6175C13.2603 12.5626 13.1858 12.5317 13.1081 12.5317H12.3721C12.2944 12.5317 12.2199 12.5626 12.1649 12.6175C12.11 12.6725 12.0791 12.747 12.0791 12.8247C12.0791 12.9024 12.11 12.9769 12.1649 13.0319C12.2199 13.0868 12.2944 13.1177 12.3721 13.1177Z" fill="black"/>
<path d="M11.2471 13.1177H11.2584C11.3361 13.1177 11.4107 13.0868 11.4656 13.0319C11.5206 12.9769 11.5514 12.9024 11.5514 12.8247C11.5514 12.747 11.5206 12.6725 11.4656 12.6175C11.4107 12.5626 11.3361 12.5317 11.2584 12.5317H11.2471C11.1694 12.5317 11.0949 12.5626 11.0399 12.6175C10.985 12.6725 10.9541 12.747 10.9541 12.8247C10.9541 12.9024 10.985 12.9769 11.0399 13.0319C11.0949 13.0868 11.1694 13.1177 11.2471 13.1177Z" fill="black"/>
<path d="M5.42969 12.8247C5.42969 12.9024 5.46055 12.9769 5.5155 13.0319C5.57044 13.0868 5.64496 13.1177 5.72266 13.1177H10.2031C10.2808 13.1177 10.3553 13.0868 10.4102 13.0319C10.4652 12.9769 10.496 12.9024 10.496 12.8247C10.496 12.747 10.4652 12.6725 10.4102 12.6175C10.3553 12.5626 10.2808 12.5317 10.2031 12.5317H5.72266C5.64496 12.5317 5.57044 12.5626 5.5155 12.6175C5.46055 12.6725 5.42969 12.747 5.42969 12.8247Z" fill="black"/>
<path d="M3.14746 13.1177H4.58208C4.65978 13.1177 4.7343 13.0868 4.78924 13.0319C4.84418 12.9769 4.87505 12.9024 4.87505 12.8247C4.87505 12.747 4.84418 12.6725 4.78924 12.6175C4.7343 12.5626 4.65978 12.5317 4.58208 12.5317H3.14746C3.06976 12.5317 2.99524 12.5626 2.9403 12.6175C2.88536 12.6725 2.85449 12.747 2.85449 12.8247C2.85449 12.9024 2.88536 12.9769 2.9403 13.0319C2.99524 13.0868 3.06976 13.1177 3.14746 13.1177Z" fill="black"/>
</svg>
